<svg width="32" height="32" viewBox="0 0 32 32" fill="none" xmlns="http://www.w3.org/2000/svg">
  <rect width="32" height="32" rx="7" fill="#0B1220"/>
  <path d="M16 5c2.4 3.1 1.2 5.2-.2 7.1-1.4 1.9-3 3.7-3 6.3A6.2 6.2 0 0 0 22.2 18c0-1.4-.5-2.7-1.3-3.9.2 1.6-.6 2.7-1.6 3.1.8-2.4-.3-4.6-1.5-6.4C16.5 9 16 7 16 5Z" fill="#FF7A45"/>
  <path d="M6 24c2.5-2.4 4.6-2.4 7.1 0s4.6 2.4 7.1 0 4.6-2.4 5.8-1.2" stroke="#3BA0FF" stroke-width="2" stroke-linecap="round" stroke-linejoin="round" fill="none"/>
</svg>
